name C:\Users\u0101727\Documents\MyRepositories\upper-imu-dc\Results\main_mocap_tracking\Case_5\kinematics.mot
datacolumns 15
datarows 31
range 1.00000000 1.30000000
endheader 
time	ground_thorax_rot_x	ground_thorax_rot_y	ground_thorax_rot_z	clav_prot	clav_elev	scapula_abduction	scapula_elevation	scapula_upward_rot	scapula_winging	plane_elv	shoulder_elv	axial_rot	elbow_flexion	pro_sup	
          1.00000000	          1.75657821	         -6.06650668	         -9.71851167	        -20.60247593	         -7.65214174	         -7.94242510	         -6.66202693	         13.65237991	          6.33366647	         35.74532561	         27.37952222	        -12.30223585	          0.04381171	         34.31684143	
          1.01000000	          1.74559142	         -6.08449958	         -9.73270769	        -20.58998842	         -7.65425710	         -7.79236105	         -6.71859979	         13.87142815	          6.28304464	         37.01285864	         28.04422149	        -14.18819159	          0.04524042	         34.31662961	
          1.02000000	          1.73380427	         -6.10348792	         -9.75129477	        -20.57391935	         -7.64569755	         -7.62544933	         -6.77182259	         14.11142800	          6.22268931	         38.24910817	         28.70702610	        -16.06689558	          0.04782914	         34.31631253	
          1.03000000	          1.72079072	         -6.12431255	         -9.77415485	        -20.55236232	         -7.62681016	         -7.43830769	         -6.82174616	         14.37215352	          6.15254683	         39.45676726	         29.36620025	        -17.90861199	          0.05091392	         34.31595708	
          1.04000000	          1.70614137	         -6.14772961	         -9.80117118	        -20.52416417	         -7.59789197	         -7.22860900	         -6.86853008	         14.65380282	          6.07253420	         40.63946347	         30.01988700	        -19.68534801	          0.05367728	         34.31564649	
          1.05000000	          1.68949863	         -6.17433562	         -9.83221488	        -20.48885502	         -7.55938352	         -6.99503486	         -6.91253456	         14.95679715	          5.98266093	         41.80053106	         30.66633265	        -21.37252230	          0.05538283	         34.31545875	
          1.06000000	          1.67058152	         -6.20451630	         -9.86713679	        -20.44642265	         -7.51207173	         -6.73704167	         -6.95437756	         15.28144494	          5.88316884	         42.94174403	         31.30417306	        -22.95033368	          0.05558635	         34.31544101	
          1.07000000	          1.64919912	         -6.23842482	         -9.90576627	        -20.39705042	         -7.45721418	         -6.45459320	         -6.99492756	         15.62759226	          5.77463615	         44.06246658	         31.93268975	        -24.40489121	          0.05422254	         34.31559934	
          1.08000000	          1.62525494	         -6.27598447	         -9.94791485	        -20.34090810	         -7.39651622	         -6.14796841	         -7.03521073	         15.99436115	          5.65800270	         45.15948029	         32.55196321	        -25.72880149	          0.05154600	         34.31590716	
          1.09000000	          1.59874698	         -6.31690339	         -9.99338056	        -20.27805069	         -7.33192322	         -5.81770413	         -7.07622409	         16.38004589	          5.53449020	         46.22754596	         33.16287206	        -26.92070595	          0.04799192	         34.31631924	
          1.10000000	          1.56976721	         -6.36068954	        -10.04194995	        -20.20848916	         -7.26525520	         -5.46474797	         -7.11868961	         16.78221113	          5.40542821	         47.26062374	         33.76691888	        -27.98389199	          0.04402274	         34.31678550	
          1.11000000	          1.53850059	         -6.40666191	        -10.09339768	        -20.13245353	         -7.19779870	         -5.09083211	         -7.16283549	         17.19798679	          5.27204198	         48.25346212	         34.36591264	        -28.92462323	          0.03999715	         34.31726467	
          1.12000000	          1.50521864	         -6.45396530	        -10.14748531	        -20.05074145	         -7.13002216	         -4.69889990	         -7.20830100	         17.62446769	          5.13528439	         49.20301042	         34.96160053	        -29.75071253	          0.03609220	         34.31773324	
          1.13000000	          1.47026045	         -6.50160380	        -10.20396182	        -19.96495790	         -7.06154527	         -4.29331221	         -7.25421487	         18.05906675	          4.99577974	         50.10908580	         35.55537410	        -30.47056838	          0.03230567	         34.31818557	
          1.14000000	          1.43399813	         -6.54850414	        -10.26256798	        -19.87749982	         -6.99137541	         -3.87964893	         -7.29942108	         18.49970799	          4.85389049	         50.97406014	         36.14812866	        -31.09276615	          0.02853575	         34.31862641	
          1.15000000	          1.39679131	         -6.59360678	        -10.32304403	        -19.79127109	         -6.91829393	         -3.46411294	         -7.34276057	         18.94485114	          4.70985108	         51.80179639	         36.74026560	        -31.62603873	          0.02469560	         34.31906052	
          1.16000000	          1.35894047	         -6.63597038	        -10.38513810	        -19.70921870	         -6.84121702	         -3.05268637	         -7.38330001	         19.39342331	          4.56388201	         52.59631823	         37.33176838	        -32.07948220	          0.02080421	         34.31948408	
          1.17000000	          1.32064872	         -6.67487194	        -10.44861238	        -19.63381734	         -6.75940756	         -2.65022726	         -7.42044405	         19.84475157	          4.41622297	         53.36063169	         37.92227566	        -32.46280512	          0.01701316	         34.31988146	
          1.18000000	          1.28199750	         -6.70988667	        -10.51324500	        -19.56662246	         -6.67253668	         -2.25968441	         -7.45394857	         20.29854425	          4.26709111	         54.09589453	         38.51111046	        -32.78651607	          0.01356920	         34.32022759	
          1.19000000	          1.24293834	         -6.74093424	        -10.57882664	        -19.50799453	         -6.58068401	         -1.88161570	         -7.48389901	         20.75488099	          4.11663104	         54.80099766	         39.09729361	        -33.06193336	          0.01074236	         34.32049428	
          1.20000000	          1.20330330	         -6.76827780	        -10.64515061	        -19.45707838	         -6.48433339	         -1.51419958	         -7.51068239	         21.21412657	          3.96491791	         55.47267810	         39.67961636	        -33.30079753	          0.00874849	         34.32065973	
          1.21000000	          1.16283844	         -6.79246429	        -10.71199475	        -19.41208425	         -6.38431337	         -1.15385435	         -7.53491108	         21.67673719	          3.81200899	         56.10634590	         40.25681558	        -33.51420702	          0.00767422	         34.32071885	
          1.22000000	          1.12126149	         -6.81420725	        -10.77909505	        -19.37083647	         -6.28160263	         -0.79638688	         -7.55725089	         22.14301807	          3.65799173	         56.69760497	         40.82782070	        -33.71086501	          0.00740549	         34.32069073	
          1.23000000	          1.07833466	         -6.83423613	        -10.84611478	        -19.33143280	         -6.17702525	         -0.43833791	         -7.57818409	         22.61291940	          3.50299590	         57.24399711	         41.39199803	        -33.89516927	          0.00758266	         34.32062044	
          1.24000000	          1.03393361	         -6.85315626	        -10.91261650	        -19.29276369	         -6.07097521	         -0.07803232	         -7.59780756	         23.08591032	          3.34718266	         57.74618442	         41.94932829	        -34.06601718	          0.00763258	         34.32057265	
          1.25000000	          0.98809454	         -6.87136132	        -10.97804367	        -19.25469119	         -5.96331218	          0.28404408	         -7.61576033	         23.56092904	          3.19074094	         58.20799136	         42.50047917	        -34.21704207	          0.00690901	         34.32061597	
          1.26000000	          0.94103161	         -6.88901524	        -11.04171458	        -19.21787167	         -5.85347620	          0.64558662	         -7.63131502	         24.03641639	          3.03390584	         58.63533115	         43.04674865	        -34.33842486	          0.00490172	         34.32080267	
          1.27000000	          0.89312836	         -6.90609486	        -11.10282664	        -19.18336556	         -5.74076616	          1.00329284	         -7.64360200	         24.51045738	          2.87698981	         59.03454396	         43.58987155	        -34.41975881	          0.00142385	         34.32115070	
          1.28000000	          0.84491235	         -6.92247053	        -11.16046669	        -19.15221818	         -5.62467734	          1.35382547	         -7.65189542	         24.98103256	          2.72040854	         59.41079573	         44.13171985	        -34.45306926	         -0.00330048	         34.32163539	
          1.29000000	          0.79702334	         -6.93799803	        -11.21362249	        -19.12514973	         -5.50519095	          1.69461215	         -7.65587271	         25.44631229	          2.56469165	         59.76703691	         44.67398697	        -34.43506876	         -0.00867304	         34.32219399	
          1.30000000	          0.75018516	         -6.95259698	        -11.26119069	        -19.10241316	         -5.38291216	          2.02429839	         -7.65575542	         25.90490563	          2.41046286	         60.10376282	         45.21795236	        -34.36798984	         -0.01385448	         34.32274003	
